[B]Its my birthday release Enjoy friend..!![/B]

[/B]Maveeran Video Songs (Pidichirukku & Vandinathi Summa ) ~Dual Audio~ videosongs 1080p [JoNaShEr]-1080p-BluRay[/B]




Video

Format                           : AVC
Format/Info                      : Advanced Video Codec
Format profile                   : High@L4.1
Format settings, CABAC           : Yes
Format settings, ReFrames        : 4 frames
Codec ID                         : V_MPEG4/ISO/AVC
Duration                         : 7mn 83s
Bit rate mode                    : Variable
Bit rate                         : 6 503 Kbps
Maximum bit rate                 : 40.0 Mbps
Width                            : 1 920 pixels
Height                           : 816 pixels
Display aspect ratio             : 2.35:1
Frame rate                       : 24.000 fps
Color space                      : YUV
Chroma subsampling               : 4:2:0
Bit depth                        : 8 bits
Scan type                        : Progressive
Bits/(Pixel*Frame)               : 0.173
Stream size                      : 175 MiB (77%)
   

Audio #1
ID                               : 2
Format                           : DTS
Format/Info                      : Digital Theater Systems
Format profile                   : MA / Core
Codec ID                         : A_DTS
Duration                         : 7mn 83s
Bit rate mode                    : Variable
Bit rate                         : 1 011 Kbps / 960 Kbps
Channel(s)                       : 6 channels
Channel positions                : Front: L C R, Side: L R, LFE
Sampling rate                    : 48.0 KHz
Bit depth                        : 16 bits
Compression mode                 : Lossless / Lossy

[COLOR=\\\"red\\\"]Audio #2[/COLOR]
ID                               : 3
Format                           : DTS
Format/Info                      : Digital Theater Systems
Format profile                   : ES
Codec ID                         : A_DTS
Duration                         : 7mn 83s
Bit rate mode                    : Constant
Bit rate                         : 755 Kbps
Channel(s)                       : 6 channels
Channel positions                : Front: L C R, Side: L R, LFE
Sampling rate                    : 48.0 KHz
Bit depth                        : 24 bits
Compression mode                 : Lossy
Stream size                      : 20.3 MiB (9%)


Text
ID                               : 4
Format                           : PGS
Muxing mode                      : zlib
Codec ID                         : S_HDMV/PGS
Codec ID/Info                    : The same subtitle format used on BDs/HD-DVD


 
http://picasaindia.com/images/14259944723376040726.jpg
 
http://picasaindia.com/images/45743860373826233320.jpg
 
http://picasaindia.com/images/87613947511657068610.jpg
 
http://picasaindia.com/images/36707611728519360649.jpg
 
http://picasaindia.com/images/61318193134938285796.jpg
 
http://picasaindia.com/images/11114354030180314746.jpg
 
http://picasaindia.com/images/01230850975235848017.jpg
 
http://picasaindia.com/images/79417276331922149714.jpg
 
http://picasaindia.com/images/45310903133017053249.jpg



Note : Good Audio & Video Quality to watch.Videos Playable in All DIVX Players 


HIGH SPEED SEEDING STARTED...

Use VLC Media Player to get the full Audio effects in 2.1,5.1 or 7.1 speakers

NO WATERMARK

CREDIT TO THE ORIGINAL RIPPER